# xmcd CD database file
#
# Track frame offsets:
#	150
#	14427
#	35038
#	52978
#	72724
#	94185
#	113730
#	131605
#	154250
#	177216
#	197040
#	215135
#	236864
#	259619
#
# Disc length: 3720 seconds
#
# Revision: 0
# Processed by: cddbd v1.5.2PL0 Copyright (c) Steve Scherf et al.
# Submitted via: jetAudio 7
#
DISCID=d10e860e
DTITLE=夏蘊慧 - 河濱公園
DYEAR=1900
DGENRE=장르 없음
TTITLE0=情人
TTITLE1=深呼吸
TTITLE2=河濱公園
TTITLE3=爱似狂潮
TTITLE4=太委屈
TTITLE5=傷心太平洋
TTITLE6=月亮惹的禍
TTITLE7=矜持
TTITLE8=回家
TTITLE9=最熟悉的陌生人
TTITLE10=勇气
TTITLE11=囚鸟
TTITLE12=過火
TTITLE13=我願意
EXTD=
EXTT0=
EXTT1=
EXTT2=
EXTT3=
EXTT4=
EXTT5=
EXTT6=
EXTT7=
EXTT8=
EXTT9=
EXTT10=
EXTT11=
EXTT12=
EXTT13=
PLAYORDER=
